<svg width="18" height="18" viewBox="0 0 18 18" fill="none" xmlns="http://www.w3.org/2000/svg">
<path d="M7.64234 9.67951C7.93386 10.0696 8.3058 10.3924 8.73291 10.626C9.16003 10.8596 9.63234 10.9985 10.1178 11.0333C10.6033 11.0681 11.0905 10.998 11.5465 10.8277C12.0025 10.6575 12.4166 10.391 12.7607 10.0465L14.7972 8.00791C15.4155 7.36712 15.7576 6.50888 15.7499 5.61805C15.7421 4.72722 15.3852 3.87506 14.7559 3.24513C14.1266 2.61519 13.2753 2.25787 12.3853 2.25013C11.4954 2.24239 10.638 2.58484 9.99788 3.20374L8.83029 4.36571M10.3577 8.32049C10.0661 7.93036 9.6942 7.60755 9.26709 7.37396C8.83997 7.14037 8.36766 7.00147 7.8822 6.96667C7.39674 6.93186 6.90948 7.00198 6.45347 7.17225C5.99746 7.34253 5.58336 7.60899 5.23927 7.95355L3.20278 9.99209C2.58451 10.6329 2.24239 11.4911 2.25013 12.3819C2.25786 13.2728 2.61482 14.1249 3.24413 14.7549C3.87343 15.3848 4.72473 15.7421 5.61466 15.7499C6.5046 15.7576 7.36197 15.4152 8.00212 14.7963L9.16292 13.6343" stroke="white" stroke-width="2" stroke-linecap="round" stroke-linejoin="round"/>
</svg>
