<svg width="232" height="54" viewBox="0 0 232 54" fill="none" xmlns="http://www.w3.org/2000/svg">
<g clip-path="url(#clip0)">
<path d="M1.2276 51.2598H16.9193H23.196C33.8663 51.2598 42.4444 42.6816 42.4444 32.0113C42.4444 21.341 33.8663 12.7628 23.196 12.7628C21.1037 12.7628 18.5931 13.1813 16.5008 13.8089V0.62793H1.2276V51.2598Z" fill="#FFBF0B"/>
<path d="M23.196 51.8872H16.9193H1.22764C1.01842 51.8872 0.599976 51.6779 0.599976 51.2595V0.627667C0.599976 0.209222 0.809198 0 1.22764 0H16.7101C16.9193 0 17.3378 0.209222 17.3378 0.627667V13.181C19.0116 12.5533 21.1038 12.1349 23.196 12.1349C34.0756 12.1349 43.0721 20.9222 43.0721 32.011C43.0721 43.0998 34.0756 51.8872 23.196 51.8872ZM1.64609 50.6318H16.9193H23.196C33.4479 50.6318 41.8168 42.2629 41.8168 32.011C41.8168 21.7591 33.4479 13.3902 23.196 13.3902C21.1038 13.3902 18.5931 13.8087 16.7101 14.4363C16.5009 14.4363 16.0824 14.4363 16.0824 14.0179V13.8087V1.04611H1.64609V50.6318Z" fill="black"/>
<path d="M13.5718 18.4124V3.55762H4.36597V48.3312H13.5718V45.6113" fill="white"/>
<path d="M13.5718 48.9586H4.36601C4.15679 48.9586 3.73834 48.7494 3.73834 48.331V3.55735C3.73834 3.34813 3.94756 2.92969 4.36601 2.92969H13.3626C13.5718 2.92969 13.9902 3.13891 13.9902 3.55735V18.6214H12.9441V3.9758H4.99368V47.7033H12.9441V45.6111H13.9902V48.331C13.9902 48.5402 13.781 48.9586 13.5718 48.9586Z" fill="black"/>
<path d="M23.196 48.749C32.44 48.749 39.9338 41.2553 39.9338 32.0112C39.9338 22.7672 32.44 15.2734 23.196 15.2734C13.952 15.2734 6.45819 22.7672 6.45819 32.0112C6.45819 41.2553 13.952 48.749 23.196 48.749Z" fill="white"/>
<path d="M23.196 49.167C13.781 49.167 6.03973 41.4257 6.03973 32.0107C6.03973 22.5957 13.781 14.8545 23.196 14.8545C32.611 14.8545 40.3522 22.5957 40.3522 32.0107C40.3522 41.4257 32.8202 49.167 23.196 49.167ZM23.196 15.9006C14.4086 15.9006 7.08585 23.2234 7.08585 32.0107C7.08585 40.7981 14.4086 48.1209 23.196 48.1209C31.9833 48.1209 39.3061 40.7981 39.3061 32.0107C39.3061 23.0142 32.1925 15.9006 23.196 15.9006Z" fill="black"/>
<path d="M23.196 46.8658C15.0364 46.8658 8.34125 40.1707 8.34125 32.011C8.34125 23.8514 15.0364 17.1562 23.196 17.1562C31.3557 17.1562 38.0508 23.8514 38.0508 32.011C38.0508 40.1707 31.3557 46.8658 23.196 46.8658ZM23.196 18.2024C15.664 18.2024 9.38736 24.479 9.38736 32.011C9.38736 39.543 15.664 45.8197 23.196 45.8197C30.728 45.8197 37.0047 39.543 37.0047 32.011C37.0047 24.2698 30.728 18.2024 23.196 18.2024Z" fill="black"/>
<path d="M23.3467 31.5708L22.607 32.3105L38.1408 47.8444L38.8805 47.1047L23.3467 31.5708Z" fill="black"/>
<path d="M38.8877 46.6579L39.7246 47.4948V47.704L38.8877 48.5409H38.6784L37.8416 47.704V47.4948L38.6784 46.6579C38.6784 46.4487 38.6784 46.4487 38.8877 46.6579Z" fill="black"/>
<path d="M38.6784 49.1681C38.4692 49.1681 38.26 49.1681 38.0508 48.9588L37.2139 48.122C37.0046 47.9127 37.0046 47.2851 37.2139 47.0758L38.0508 46.2389C38.26 46.0297 38.8876 46.0297 39.0969 46.2389L39.9338 47.0758C40.143 47.2851 40.143 47.9127 39.9338 48.122L39.0969 48.9588C39.0969 49.1681 38.8876 49.1681 38.6784 49.1681ZM38.26 47.4943L38.6784 47.9127L39.0969 47.4943L38.6784 47.0758L38.26 47.4943Z" fill="black"/>
<path d="M37.8416 16.3203L38.6785 15.4834H38.8877L39.7246 16.3203V16.5295L38.8877 17.3664H38.6785L37.8416 16.5295C37.6324 16.5295 37.6324 16.3203 37.8416 16.3203Z" fill="black"/>
<path d="M38.6785 17.9933C38.4693 17.9933 38.26 17.9933 38.0508 17.784L37.2139 16.9471C37.0047 16.7379 37.0047 16.5287 37.0047 16.3195C37.0047 16.1103 37.0047 15.901 37.2139 15.6918L38.26 15.0641C38.4693 14.8549 39.0969 14.8549 39.3061 15.0641L40.143 15.901C40.3523 16.1103 40.3523 16.1103 40.3523 16.3195C40.3523 16.5287 40.3523 16.7379 40.143 16.9471L39.3061 17.784C39.0969 17.9933 38.8877 17.9933 38.6785 17.9933ZM38.4693 16.3195L38.6785 16.7379L39.0969 16.3195L38.6785 15.901L38.4693 16.3195Z" fill="black"/>
<path d="M38.4086 15.9828L22.8748 31.5166L23.6145 32.2563L39.1483 16.7225L38.4086 15.9828Z" fill="black"/>
<path d="M23.196 36.614C25.7381 36.614 27.7989 34.5532 27.7989 32.0111C27.7989 29.469 25.7381 27.4082 23.196 27.4082C20.6539 27.4082 18.5931 29.469 18.5931 32.0111C18.5931 34.5532 20.6539 36.614 23.196 36.614Z" fill="#FFBF0B"/>
<path d="M23.196 37.2414C20.2669 37.2414 17.9655 34.9399 17.9655 32.0108C17.9655 29.0817 20.2669 26.7803 23.196 26.7803C26.1251 26.7803 28.4266 29.0817 28.4266 32.0108C28.4266 34.7307 26.1251 37.2414 23.196 37.2414ZM23.196 27.8264C20.8946 27.8264 19.0116 29.7094 19.0116 32.0108C19.0116 34.3123 20.8946 36.1953 23.196 36.1953C25.4975 36.1953 27.3805 34.3123 27.3805 32.0108C27.3805 29.7094 25.4975 27.8264 23.196 27.8264Z" fill="black"/>
<path d="M23.196 34.3129C24.4671 34.3129 25.4975 33.2825 25.4975 32.0114C25.4975 30.7404 24.4671 29.71 23.196 29.71C21.925 29.71 20.8946 30.7404 20.8946 32.0114C20.8946 33.2825 21.925 34.3129 23.196 34.3129Z" fill="white"/>
<path d="M23.196 34.7308C21.7315 34.7308 20.4761 33.4755 20.4761 32.0109C20.4761 30.5464 21.7315 29.291 23.196 29.291C24.6606 29.291 25.9159 30.5464 25.9159 32.0109C25.9159 33.4755 24.6606 34.7308 23.196 34.7308ZM23.196 30.3371C22.3591 30.3371 21.5222 31.174 21.5222 32.0109C21.5222 32.8478 22.3591 33.6847 23.196 33.6847C24.0329 33.6847 24.8698 32.8478 24.8698 32.0109C24.8698 31.174 24.0329 30.3371 23.196 30.3371Z" fill="black"/>
<path d="M26.8241 29.2304L19.2283 34.0508L19.7888 34.934L27.3846 30.1137L26.8241 29.2304Z" fill="black"/>
<path d="M19.7837 29.2047L19.2231 30.0879L26.8189 34.9092L27.3795 34.0259L19.7837 29.2047Z" fill="black"/>
<path d="M16.5009 38.7062V25.316H23.196V20.9223H16.9193V20.0854V18.8301H6.45819V21.9684H11.4795V41.8445H6.45819V44.9829H11.4795H16.9193V42.8907H23.196V38.7062H16.5009Z" fill="#FFBF0B"/>
<path d="M16.9194 45.4011H6.45823C6.24901 45.4011 5.83057 45.1918 5.83057 44.7734V41.8443C5.83057 41.6351 6.03979 41.2166 6.45823 41.2166H10.8519V22.3866H6.45823C6.24901 22.3866 5.83057 22.1774 5.83057 21.7589V18.8298C5.83057 18.6206 6.03979 18.2021 6.45823 18.2021H16.9194C17.1286 18.4114 17.3378 18.6206 17.3378 18.8298V20.2944H23.196C23.4053 20.2944 23.8237 20.5036 23.8237 20.922V25.3157C23.8237 25.5249 23.6145 25.9434 23.196 25.9434H16.9194V38.2875H23.196C23.4053 38.2875 23.8237 38.4967 23.8237 38.9152V43.3088C23.8237 43.5181 23.6145 43.9365 23.196 43.9365H17.3378V45.4011C17.3378 45.1918 17.1286 45.4011 16.9194 45.4011ZM7.0859 44.355H16.2917V42.8904C16.2917 42.6812 16.5009 42.2627 16.9194 42.2627H22.7776V39.1244H16.5009C16.2917 39.1244 15.8732 38.9152 15.8732 38.4967V25.1065C15.8732 24.8973 16.0825 24.4788 16.5009 24.4788H22.7776V21.3405H16.9194C16.7101 21.3405 16.2917 21.1313 16.2917 20.7128V19.4575H7.0859V21.3405H11.4796C11.6888 21.3405 12.1072 21.5497 12.1072 21.9682V41.8443C12.1072 42.0535 11.898 42.472 11.4796 42.472H7.0859V44.355Z" fill="black"/>
<path d="M23.6145 20.9219H22.5684V43.0995H23.6145V20.9219Z" fill="black"/>
<path d="M80.523 38.4977C80.523 43.1006 76.9662 45.8205 69.8526 45.8205H56.0439V19.04H69.0157C75.7109 19.04 79.0584 21.7599 79.0584 25.9444C79.0584 28.6643 77.5939 30.7565 75.5016 31.8026C78.64 32.8487 80.523 35.1502 80.523 38.4977ZM62.1114 23.8522V30.1288H68.1788C71.108 30.1288 72.7817 29.0827 72.7817 26.9905C72.7817 24.8983 71.108 23.8522 68.1788 23.8522H62.1114ZM74.2463 37.8701C74.2463 35.5686 72.5725 34.5225 69.4342 34.5225H62.3206V41.0084H69.4342C72.5725 41.2176 74.2463 40.1715 74.2463 37.8701Z" fill="black"/>
<path d="M102.91 34.1037V45.8202H97.2608V43.3095C96.2147 45.1925 94.1224 46.2386 90.9841 46.2386C86.172 46.2386 83.2429 43.5187 83.2429 39.9619C83.2429 36.4051 85.7535 33.8945 92.0302 33.8945H96.8423C96.8423 31.3838 95.3778 29.9192 92.0302 29.9192C89.938 29.9192 87.6365 30.5469 86.172 31.8022L84.0798 27.6178C86.3812 25.944 89.7288 25.1071 92.8671 25.1071C99.353 24.8979 102.91 27.827 102.91 34.1037ZM96.8423 39.3343V37.242H92.8671C90.1472 37.242 89.3103 38.2881 89.3103 39.5435C89.3103 41.008 90.5656 42.0541 92.6579 42.0541C94.5409 42.0541 96.2147 41.2173 96.8423 39.3343Z" fill="black"/>
<path d="M129.272 34.1045V45.8209H123.414V34.9414C123.414 31.5938 121.949 30.1292 119.229 30.1292C116.3 30.1292 114.417 31.803 114.417 35.569V45.6117H108.559V25.1079H114.208V27.4093C115.882 25.7356 118.183 24.6895 120.903 24.6895C125.506 24.8987 129.272 27.8278 129.272 34.1045Z" fill="black"/>
<path d="M155.634 17.5752V45.8202H149.985V43.5188C148.52 45.4018 146.428 46.2387 143.499 46.2387C137.641 46.2387 133.247 42.0542 133.247 35.7775C133.247 29.2917 137.641 25.3164 143.499 25.3164C146.01 25.3164 148.102 26.1533 149.566 27.8271V17.5752H155.634ZM149.776 35.5683C149.776 32.0115 147.474 29.9193 144.545 29.9193C141.616 29.9193 139.315 32.0115 139.315 35.5683C139.315 39.1251 141.616 41.2173 144.545 41.2173C147.474 41.2173 149.776 39.1251 149.776 35.5683Z" fill="black"/>
<path d="M184.716 28.8735C184.716 34.7317 180.322 38.4977 173.209 38.4977H167.769V45.8205H161.701V19.04H173.209C180.322 19.04 184.716 22.806 184.716 28.8735ZM178.439 28.8735C178.439 25.9444 176.556 24.2706 172.79 24.2706H167.769V33.4764H172.79C176.556 33.4764 178.439 31.5934 178.439 28.8735Z" fill="black"/>
<path d="M206.684 34.1037V45.8202H201.035V43.3095C199.989 45.1925 197.897 46.2386 194.758 46.2386C189.946 46.2386 187.017 43.5187 187.017 39.9619C187.017 36.4051 189.528 33.8945 195.805 33.8945H200.617C200.617 31.3838 199.152 29.9192 195.805 29.9192C193.712 29.9192 191.411 30.5469 189.946 31.8022L187.854 27.6178C190.156 25.944 193.503 25.1071 196.641 25.1071C202.918 24.8979 206.684 27.827 206.684 34.1037ZM200.617 39.3343V37.242H196.641C193.922 37.242 193.085 38.2881 193.085 39.5435C193.085 41.008 194.34 42.0541 196.432 42.0541C198.315 42.0541 199.989 41.2173 200.617 39.3343Z" fill="black"/>
<path d="M232 25.3164L222.794 47.0755C220.911 52.0969 217.982 53.5614 214.216 53.5614C212.124 53.5614 209.822 52.9338 208.567 51.6784L210.659 47.494C211.496 48.3309 212.752 48.7493 214.007 48.7493C215.681 48.7493 216.518 48.1217 217.354 46.2386V46.0294L208.567 25.3164H214.635L220.284 39.1251L226.142 25.3164H232Z" fill="black"/>
</g>
<defs>
<clipPath id="clip0">
<rect width="231.4" height="53.5609" fill="white" transform="translate(0.599976)"/>
</clipPath>
</defs>
</svg>
