<svg width="94" height="22" viewBox="0 0 94 22" fill="none" xmlns="http://www.w3.org/2000/svg">
<g clip-path="url(#clip0)">
<path d="M0.253906 20.8237H6.62823H9.17796C13.5125 20.8237 16.9971 17.339 16.9971 13.0045C16.9971 8.66996 13.5125 5.18533 9.17796 5.18533C8.32805 5.18533 7.30815 5.35532 6.45825 5.61029V0.255859H0.253906V20.8237Z" fill="#FFBF0B"/>
<path d="M9.17902 21.0778H6.62929H0.254973C0.169982 21.0778 0 20.9928 0 20.8228V0.254973C0 0.084991 0.084991 0 0.254973 0H6.5443C6.62929 0 6.79928 0.084991 6.79928 0.254973V5.35443C7.4792 5.09946 8.32911 4.92948 9.17902 4.92948C13.5986 4.92948 17.2532 8.49909 17.2532 13.0036C17.2532 17.5081 13.5986 21.0778 9.17902 21.0778ZM0.424955 20.5678H6.62929H9.17902C13.3436 20.5678 16.7432 17.1682 16.7432 13.0036C16.7432 8.83906 13.3436 5.43942 9.17902 5.43942C8.32911 5.43942 7.30922 5.6094 6.5443 5.86438C6.45931 5.86438 6.28933 5.86438 6.28933 5.69439V5.6094V0.424955H0.424955V20.5678Z" fill="#333333"/>
<path d="M5.2689 7.47967V1.44531H1.5293V19.6334H5.2689V18.5285" fill="white"/>
<path d="M5.26997 19.8875H1.53036C1.44537 19.8875 1.27539 19.8025 1.27539 19.6325V1.44443C1.27539 1.35944 1.36038 1.18945 1.53036 1.18945H5.18497C5.26997 1.18945 5.43995 1.27444 5.43995 1.44443V7.56377H5.01499V1.61441H1.78534V19.3775H5.01499V18.5276H5.43995V19.6325C5.43995 19.7175 5.35496 19.8875 5.26997 19.8875Z" fill="#333333"/>
<path d="M9.17818 19.8036C12.9333 19.8036 15.9775 16.7595 15.9775 13.0044C15.9775 9.24922 12.9333 6.20508 9.17818 6.20508C5.42305 6.20508 2.37891 9.24922 2.37891 13.0044C2.37891 16.7595 5.42305 19.8036 9.17818 19.8036Z" fill="white"/>
<path d="M9.17824 19.9737C5.35365 19.9737 2.20898 16.829 2.20898 13.0044C2.20898 9.17982 5.35365 6.03516 9.17824 6.03516C13.0028 6.03516 16.1475 9.17982 16.1475 13.0044C16.1475 16.829 13.0878 19.9737 9.17824 19.9737ZM9.17824 6.46011C5.60862 6.46011 2.63394 9.43479 2.63394 13.0044C2.63394 16.574 5.60862 19.5487 9.17824 19.5487C12.7479 19.5487 15.7225 16.574 15.7225 13.0044C15.7225 9.3498 12.8329 6.46011 9.17824 6.46011Z" fill="#333333"/>
<path d="M9.17889 19.0375C5.86424 19.0375 3.14453 16.3178 3.14453 13.0031C3.14453 9.68846 5.86424 6.96875 9.17889 6.96875C12.4935 6.96875 15.2132 9.68846 15.2132 13.0031C15.2132 16.3178 12.4935 19.0375 9.17889 19.0375ZM9.17889 7.3937C6.11922 7.3937 3.56949 9.94343 3.56949 13.0031C3.56949 16.0628 6.11922 18.6125 9.17889 18.6125C12.2386 18.6125 14.7883 16.0628 14.7883 13.0031C14.7883 9.85844 12.2386 7.3937 9.17889 7.3937Z" fill="#333333"/>
<path d="M9.23994 12.8265L8.93945 13.127L15.2496 19.4371L15.5501 19.1367L9.23994 12.8265Z" fill="#333333"/>
<path d="M15.5539 18.9524L15.8938 19.2924V19.3774L15.5539 19.7173H15.4689L15.1289 19.3774V19.2924L15.4689 18.9524C15.4689 18.8674 15.4689 18.8674 15.5539 18.9524Z" fill="#333333"/>
<path d="M15.4692 19.9724C15.3842 19.9724 15.2992 19.9724 15.2143 19.8874L14.8743 19.5474C14.7893 19.4624 14.7893 19.2074 14.8743 19.1225L15.2143 18.7825C15.2992 18.6975 15.5542 18.6975 15.6392 18.7825L15.9792 19.1225C16.0642 19.2074 16.0642 19.4624 15.9792 19.5474L15.6392 19.8874C15.6392 19.9724 15.5542 19.9724 15.4692 19.9724ZM15.2992 19.2924L15.4692 19.4624L15.6392 19.2924L15.4692 19.1225L15.2992 19.2924Z" fill="#333333"/>
<path d="M15.1282 6.62903L15.4682 6.28906H15.5532L15.8931 6.62903V6.71402L15.5532 7.05398H15.4682L15.1282 6.71402C15.0432 6.71402 15.0432 6.62903 15.1282 6.62903Z" fill="#333333"/>
<path d="M15.469 7.3083C15.384 7.3083 15.299 7.3083 15.214 7.22331L14.8741 6.88335C14.7891 6.79836 14.7891 6.71337 14.7891 6.62838C14.7891 6.54339 14.7891 6.45839 14.8741 6.3734L15.299 6.11843C15.384 6.03344 15.639 6.03344 15.724 6.11843L16.0639 6.45839C16.1489 6.54339 16.1489 6.54339 16.1489 6.62838C16.1489 6.71337 16.1489 6.79836 16.0639 6.88335L15.724 7.22331C15.639 7.3083 15.554 7.3083 15.469 7.3083ZM15.384 6.62838L15.469 6.79836L15.639 6.62838L15.469 6.45839L15.384 6.62838Z" fill="#333333"/>
<path d="M15.359 6.49254L9.04883 12.8027L9.34931 13.1032L15.6595 6.79302L15.359 6.49254Z" fill="#333333"/>
<path d="M9.17839 14.8744C10.2111 14.8744 11.0482 14.0372 11.0482 13.0046C11.0482 11.9719 10.2111 11.1348 9.17839 11.1348C8.14573 11.1348 7.30859 11.9719 7.30859 13.0046C7.30859 14.0372 8.14573 14.8744 9.17839 14.8744Z" fill="#FFBF0B"/>
<path d="M9.17946 15.1285C7.98959 15.1285 7.05469 14.1936 7.05469 13.0037C7.05469 11.8138 7.98959 10.8789 9.17946 10.8789C10.3693 10.8789 11.3042 11.8138 11.3042 13.0037C11.3042 14.1086 10.3693 15.1285 9.17946 15.1285ZM9.17946 11.3039C8.24456 11.3039 7.47964 12.0688 7.47964 13.0037C7.47964 13.9386 8.24456 14.7035 9.17946 14.7035C10.1144 14.7035 10.8793 13.9386 10.8793 13.0037C10.8793 12.0688 10.1144 11.3039 9.17946 11.3039Z" fill="#333333"/>
<path d="M9.17904 13.9382C9.69537 13.9382 10.1139 13.5196 10.1139 13.0033C10.1139 12.4869 9.69537 12.0684 9.17904 12.0684C8.66271 12.0684 8.24414 12.4869 8.24414 13.0033C8.24414 13.5196 8.66271 13.9382 9.17904 13.9382Z" fill="white"/>
<path d="M9.1791 14.1082C8.58416 14.1082 8.07422 13.5983 8.07422 13.0033C8.07422 12.4084 8.58416 11.8984 9.1791 11.8984C9.77404 11.8984 10.284 12.4084 10.284 13.0033C10.284 13.5983 9.77404 14.1082 9.1791 14.1082ZM9.1791 12.3234C8.83914 12.3234 8.49917 12.6634 8.49917 13.0033C8.49917 13.3433 8.83914 13.6832 9.1791 13.6832C9.51906 13.6832 9.85903 13.3433 9.85903 13.0033C9.85903 12.6634 9.51906 12.3234 9.1791 12.3234Z" fill="#333333"/>
<path d="M10.652 11.8758L7.56641 13.834L7.7941 14.1928L10.8797 12.2346L10.652 11.8758Z" fill="#333333"/>
<path d="M7.79219 11.8639L7.56445 12.2227L10.65 14.1812L10.8778 13.8224L7.79219 11.8639Z" fill="#333333"/>
<path d="M6.45847 15.7245V10.2851H9.17818V8.5003H6.62845V8.16034V7.65039H2.37891V8.92526H4.41869V16.9994H2.37891V18.2743H4.41869H6.62845V17.4244H9.17818V15.7245H6.45847Z" fill="#FFBF0B"/>
<path d="M6.62952 18.4434H2.37997C2.29498 18.4434 2.125 18.3584 2.125 18.1884V16.9985C2.125 16.9135 2.20999 16.7435 2.37997 16.7435H4.16478V9.09435H2.37997C2.29498 9.09435 2.125 9.00936 2.125 8.83938V7.6495C2.125 7.56451 2.20999 7.39453 2.37997 7.39453H6.62952C6.71451 7.47952 6.7995 7.56451 6.7995 7.6495V8.24444H9.17925C9.26424 8.24444 9.43422 8.32943 9.43422 8.49941V10.2842C9.43422 10.3692 9.34923 10.5392 9.17925 10.5392H6.62952V15.5537H9.17925C9.26424 15.5537 9.43422 15.6387 9.43422 15.8086V17.5934C9.43422 17.6784 9.34923 17.8484 9.17925 17.8484H6.7995V18.4434C6.7995 18.3584 6.71451 18.4434 6.62952 18.4434ZM2.63495 18.0184H6.37455V17.4235C6.37455 17.3385 6.45954 17.1685 6.62952 17.1685H9.00927V15.8936H6.45954C6.37455 15.8936 6.20457 15.8086 6.20457 15.6387V10.1992C6.20457 10.1142 6.28956 9.94426 6.45954 9.94426H9.00927V8.6694H6.62952C6.54453 8.6694 6.37455 8.5844 6.37455 8.41442V7.90448H2.63495V8.6694H4.41976C4.50475 8.6694 4.67473 8.75439 4.67473 8.92437V16.9985C4.67473 17.0835 4.58974 17.2535 4.41976 17.2535H2.63495V18.0184Z" fill="#333333"/>
<path d="M9.34878 8.5H8.92383V17.509H9.34878V8.5Z" fill="#333333"/>
<path d="M32.4674 15.6385C32.4674 17.5083 31.0225 18.6132 28.1328 18.6132H22.5234V7.73438H27.7929C30.5126 7.73438 31.8724 8.83926 31.8724 10.5391C31.8724 11.644 31.2775 12.4939 30.4276 12.9188C31.7025 13.3438 32.4674 14.2787 32.4674 15.6385ZM24.9882 9.68917V12.2389H27.4529C28.6428 12.2389 29.3227 11.8139 29.3227 10.964C29.3227 10.1141 28.6428 9.68917 27.4529 9.68917H24.9882ZM29.9177 15.3836C29.9177 14.4487 29.2377 14.0237 27.9629 14.0237H25.0732V16.6584H27.9629C29.2377 16.7434 29.9177 16.3185 29.9177 15.3836Z" fill="#333333"/>
<path d="M41.5614 13.8522V18.6117H39.2667V17.5918C38.8417 18.3567 37.9918 18.7817 36.7169 18.7817C34.7621 18.7817 33.5723 17.6768 33.5723 16.232C33.5723 14.7871 34.5922 13.7672 37.1419 13.7672H39.0967C39.0967 12.7473 38.5017 12.1524 37.1419 12.1524C36.292 12.1524 35.3571 12.4074 34.7621 12.9173L33.9122 11.2175C34.8471 10.5376 36.207 10.1976 37.4819 10.1976C40.1166 10.1126 41.5614 11.3025 41.5614 13.8522ZM39.0967 15.977V15.1271H37.4819C36.377 15.1271 36.037 15.552 36.037 16.062C36.037 16.6569 36.547 17.0819 37.3969 17.0819C38.1618 17.0819 38.8417 16.7419 39.0967 15.977Z" fill="#333333"/>
<path d="M52.2696 13.8539V18.6134H49.8898V14.1939C49.8898 12.834 49.2949 12.2391 48.19 12.2391C47.0001 12.2391 46.2352 12.919 46.2352 14.4488V18.5284H43.8555V10.1993H46.1502V11.1342C46.8302 10.4543 47.7651 10.0293 48.8699 10.0293C50.7397 10.1143 52.2696 11.3042 52.2696 13.8539Z" fill="#333333"/>
<path d="M62.9788 7.13867V18.6125H60.684V17.6776C60.0891 18.4425 59.2392 18.7824 58.0493 18.7824C55.6696 18.7824 53.8848 17.0826 53.8848 14.5329C53.8848 11.8982 55.6696 10.2833 58.0493 10.2833C59.0692 10.2833 59.9191 10.6233 60.5141 11.3032V7.13867H62.9788ZM60.5991 14.4479C60.5991 13.003 59.6642 12.1531 58.4743 12.1531C57.2844 12.1531 56.3495 13.003 56.3495 14.4479C56.3495 15.8927 57.2844 16.7427 58.4743 16.7427C59.6642 16.7427 60.5991 15.8927 60.5991 14.4479Z" fill="#333333"/>
<path d="M74.7924 11.7289C74.7924 14.1087 73.0075 15.6385 70.1179 15.6385H67.9081V18.6132H65.4434V7.73438H70.1179C73.0075 7.73438 74.7924 9.26421 74.7924 11.7289ZM72.2426 11.7289C72.2426 10.5391 71.4777 9.85915 69.9479 9.85915H67.9081V13.5987H69.9479C71.4777 13.5987 72.2426 12.8338 72.2426 11.7289Z" fill="#333333"/>
<path d="M83.7177 13.8522V18.6117H81.4229V17.5918C80.998 18.3567 80.148 18.7817 78.8732 18.7817C76.9184 18.7817 75.7285 17.6768 75.7285 16.232C75.7285 14.7871 76.7484 13.7672 79.2981 13.7672H81.2529C81.2529 12.7473 80.658 12.1524 79.2981 12.1524C78.4482 12.1524 77.5133 12.4074 76.9184 12.9173L76.0685 11.2175C77.0034 10.5376 78.3632 10.1976 79.6381 10.1976C82.1878 10.1126 83.7177 11.3025 83.7177 13.8522ZM81.2529 15.977V15.1271H79.6381C78.5332 15.1271 78.1933 15.552 78.1933 16.062C78.1933 16.6569 78.7032 17.0819 79.5531 17.0819C80.318 17.0819 80.998 16.7419 81.2529 15.977Z" fill="#333333"/>
<path d="M94.0014 10.2832L90.2618 19.1223C89.4969 21.162 88.307 21.757 86.7772 21.757C85.9273 21.757 84.9924 21.502 84.4824 20.9921L85.3323 19.2922C85.6723 19.6322 86.1822 19.8022 86.6922 19.8022C87.3721 19.8022 87.7121 19.5472 88.052 18.7823V18.6973L84.4824 10.2832H86.9472L89.2419 15.8926L91.6217 10.2832H94.0014Z" fill="#333333"/>
</g>
<defs>
<clipPath id="clip0">
<rect width="94" height="21.7577" fill="white"/>
</clipPath>
</defs>
</svg>
