<svg width="22" height="18" viewBox="0 0 22 18" fill="none" xmlns="http://www.w3.org/2000/svg">
<path d="M20.4275 14.9994C20.4275 15.4541 20.2468 15.8901 19.9254 16.2116C19.6039 16.5331 19.1678 16.7137 18.7132 16.7137H3.2846C2.82994 16.7137 2.39391 16.5331 2.07242 16.2116C1.75092 15.8901 1.57031 15.4541 1.57031 14.9994V5.57087C1.57031 5.11621 1.75092 4.68018 2.07242 4.35869C2.39391 4.0372 2.82994 3.85659 3.2846 3.85659H6.71317L8.42746 1.28516H13.5703L15.2846 3.85659H18.7132C19.1678 3.85659 19.6039 4.0372 19.9254 4.35869C20.2468 4.68018 20.4275 5.11621 20.4275 5.57087V14.9994Z" stroke="white" stroke-width="2" stroke-linecap="round" stroke-linejoin="round"/>
<path d="M10.9989 13.2852C12.8924 13.2852 14.4275 11.7501 14.4275 9.85659C14.4275 7.96304 12.8924 6.42801 10.9989 6.42801C9.10534 6.42801 7.57031 7.96304 7.57031 9.85659C7.57031 11.7501 9.10534 13.2852 10.9989 13.2852Z" stroke="white" stroke-width="2" stroke-linecap="round" stroke-linejoin="round"/>
</svg>
