<svg width="32" height="32" viewBox="0 0 32 32" fill="none" xmlns="http://www.w3.org/2000/svg">
<path d="M16.0008 27.4294C22.3127 27.4294 27.4294 22.3127 27.4294 16.0008C27.4294 9.68901 22.3127 4.57227 16.0008 4.57227C9.68901 4.57227 4.57227 9.68901 4.57227 16.0008C4.57227 22.3127 9.68901 27.4294 16.0008 27.4294Z" stroke="#ABB2B9" stroke-width="2" stroke-linecap="round" stroke-linejoin="round"/>
<path d="M12.1191 12.0008C12.4326 11.1096 13.0513 10.3582 13.8657 9.8796C14.6801 9.40097 15.6377 9.22601 16.5687 9.38571C17.4997 9.54541 18.3442 10.0295 18.9526 10.7521C19.5609 11.4748 19.8939 12.3895 19.8925 13.3341C19.8925 16.0008 15.8925 17.3341 15.8925 17.3341V19.4294" stroke="#ABB2B9" stroke-width="2" stroke-linecap="round" stroke-linejoin="round"/>
<path d="M16 22.666H16.0133" stroke="#ABB2B9" stroke-width="2" stroke-linecap="round" stroke-linejoin="round"/>
</svg>
