<svg width="24" height="24" viewBox="0 0 24 24" fill="none" xmlns="http://www.w3.org/2000/svg">
<path d="M20.5691 5.14161V10.2845M20.5691 10.2845H15.4262M20.5691 10.2845L16.6005 6.54733C15.4182 5.36425 13.8834 4.59749 12.2273 4.36259C10.5713 4.1277 8.88381 4.4374 7.41911 5.24502C5.95441 6.05264 4.79188 7.31443 4.10669 8.84024C3.4215 10.3661 3.25079 12.0732 3.62026 13.7045C3.98974 15.3358 4.8794 16.8028 6.15517 17.8845C7.43094 18.9661 9.02371 19.6039 10.6935 19.7015C12.3632 19.7992 14.0195 19.3516 15.4127 18.426C16.8059 17.5005 17.8605 16.1473 18.4177 14.5702" stroke="#7749B9" stroke-width="2" stroke-linecap="round" stroke-linejoin="round"/>
</svg>
