<svg width="24" height="24" viewBox="0 0 24 24" fill="none" xmlns="http://www.w3.org/2000/svg">
<path d="M3.42969 5.13528V10.2781M3.42969 10.2781H8.57254M3.42969 10.2781L7.40683 6.54099C8.59047 5.35935 10.1261 4.5944 11.7823 4.36138C13.4385 4.12836 15.1255 4.43991 16.5893 5.24908C18.053 6.05825 19.2141 7.3212 19.8976 8.84765C20.5812 10.3741 20.7501 12.0813 20.379 13.7122C20.0079 15.343 19.1168 16.809 17.8401 17.8894C16.5633 18.9697 14.97 19.6059 13.3003 19.702C11.6306 19.7981 9.97481 19.3489 8.58254 18.4222C7.19026 17.4954 6.13688 16.1413 5.58112 14.5639" stroke="#7749B9" stroke-width="2" stroke-linecap="round" stroke-linejoin="round"/>
</svg>
